<?xml version="1.0" encoding="UTF-8" standalone="no"?>
<svg
   viewBox="0 0 640 640"
   version="1.1"
   id="svg9151"
   sodipodi:docname="taste.svg"
   width="640"
   height="640"
   inkscape:version="1.2.2 (732a01da63, 2022-12-09)"
   xmlns:inkscape="http://www.inkscape.org/namespaces/inkscape"
   xmlns:sodipodi="http://sodipodi.sourceforge.net/DTD/sodipodi-0.dtd"
   xmlns="http://www.w3.org/2000/svg"
   xmlns:svg="http://www.w3.org/2000/svg">
  <defs
     id="defs9155" />
  <sodipodi:namedview
     id="namedview9153"
     pagecolor="#ffffff"
     bordercolor="#000000"
     borderopacity="0.25"
     inkscape:showpageshadow="2"
     inkscape:pageopacity="0.0"
     inkscape:pagecheckerboard="0"
     inkscape:deskcolor="#d1d1d1"
     showgrid="false"
     inkscape:zoom="0.61650873"
     inkscape:cx="-119.21972"
     inkscape:cy="264.39204"
     inkscape:window-width="1920"
     inkscape:window-height="1017"
     inkscape:window-x="-8"
     inkscape:window-y="-8"
     inkscape:window-maximized="1"
     inkscape:current-layer="svg9151" />
  <g
     fill-rule="evenodd"
     stroke-width="0.5"
     id="g9149"
     transform="translate(-86.534151,-39.200006)">
    <path
       d="m 354,70 q 8,-0.5 16.5,1.5 8.5,2 25,12 16.5,10 21,11 4.5,1 17.5,-6 13,-7 25,-11 12,-4 28,-4.5 16,-0.5 27,2 11,2.5 23,8.5 12,6 22,14 10,8 19.2,19.7 9.3,11.8 23.3,30.8 14,19 38,44.5 24,25.5 35,38.5 11,13 15.5,22 4.5,9 5,18 0.5,9 -0.5,12.5 -1,3.5 -7,14 -6,10.5 -35.7,40.7 -29.8,30.3 -36.8,40.8 -7,10.5 -20.2,37.8 -13.3,27.2 -24.8,47.7 -11.5,20.5 -21.5,32 -10,11.5 -24.7,22.7 -14.8,11.3 -36.8,22.3 -22,11 -36.5,26.5 -14.5,15.5 -26.7,25.8 -12.3,10.2 -29,19.4 -16.8,9.3 -37.8,17.3 -21,8 -43.5,13 -22.5,5 -50,5 -27.5,0 -43.5,-4 -16,-4 -34.5,-12.5 -18.5,-8.5 -31.5,-17.5 -13,-9 -20.5,-18.5 -7.5,-9.5 -11.3,-19.2 -3.7,-9.8 -4.2,-20.3 -0.5,-10.5 1.5,-20.5 2,-10 9,-27 7,-17 15.5,-36.5 8.5,-19.5 17.5,-55 9,-35.5 16,-56 7,-20.5 7.5,-33 0.5,-12.5 -2,-23.5 -2.5,-11 -13,-34 -10.5,-23 -11,-32 -0.5,-9 2.5,-16.5 3,-7.5 7.7,-13.3 4.8,-5.7 16.8,-15.2 12,-9.5 44.2,-40.8 32.3,-31.2 48,-44.4 Q 294,95.5 308,87 q 14,-8.5 26,-12.5 12,-4 20,-4.5 z m 119.5,464 -1.5,0.5 -1,0.5 -1,0.5 -1,0.5 -1,0.5 -1,0.3 -1,0.2 0.2,-1.5 0.3,-1.5 0.5,-1 0.5,-1 0.5,-1 0.5,-1 0.5,-1 q 0.5,-1 1,-2 0.5,-1 23,-68 22.5,-67 29,-80 6.5,-13 14.5,-22 8,-9 19.7,-17.8 11.8,-8.7 38.8,-21.7 27,-13 33.2,-17.3 6.3,-4.2 7.8,-9.7 1.5,-5.5 -1,-12 Q 632.5,272 625,263 617.5,254 605.5,243.5 593.5,233 575.2,220.8 557,208.5 538,200 519,191.5 501.5,186.5 484,181.5 472,181 q -12,-0.5 -23.5,2.5 -11.5,3 -35,3.5 -23.5,0.5 -41.5,-2.5 -18,-3 -31,-4 -13,-1 -16.5,-0.5 -3.5,0.5 -21,7 -17.5,6.5 -43.5,18 -26,11.5 -33,17.5 -7,6 -9.8,13.3 -2.7,7.2 -1.2,14.7 1.5,7.5 7.5,17.5 6,10 7.3,13.5 1.2,3.5 0.2,3.5 -1,0 -1.5,1.2 -0.5,1.3 -12.7,16.6 l -12.3,15.2 -0.3,0.2 -0.2,0.3 -0.2,0.3 -0.3,0.2 -0.5,1 -0.5,1 -0.3,0.2 -0.2,0.3 -0.2,0.3 -0.3,0.2 -0.3,0.2 -0.2,0.3 h -1 l -0.2,-0.3 -0.3,-0.2 -3,-15.5 Q 193.5,291 186,274 q -7.5,-17 -11,-25 -3.5,-8 -2.5,-15 1,-7 4.5,-12.5 3.5,-5.5 11.2,-12.3 7.8,-6.7 15.6,-13 7.7,-6.2 40.4,-38 32.8,-31.7 49.3,-44.7 16.5,-13 30,-20 13.5,-7 20,-8.5 6.5,-1.5 16.5,-1 10,0.5 17,4 7,3.5 20,11.5 13,8 21.5,8 8.5,0 26.5,-9 18,-9 28,-11 10,-2 22,-1.5 12,0.5 25,5 13,4.5 23.2,11.8 10.3,7.2 17.3,14.2 7,7 24.7,31.2 17.8,24.3 40.6,49 22.7,24.8 33.7,36.8 11,12 16,20.5 5,8.5 6,11.5 1,3 0.5,9 -0.5,6 -4.8,13.8 -4.2,7.7 -16.4,21 -12.3,13.2 -32.3,33.2 -20,20 -30.5,38 -10.5,18 -26.8,51.2 -16.2,33.3 -26,46.6 -9.7,13.2 -21,23 -11.2,9.7 -27.2,19.2 -16,9.5 -19,11 -3,1.5 -4.5,2 z M 260,221 l -0.5,-1 -0.5,-1 -0.5,-1 -0.5,-1 -0.5,-1 -0.3,-1.5 -0.2,-1.5 1,-0.2 1,-0.3 32,-12.5 q 32,-12.5 36.5,-13.2 4.5,-0.8 3.7,19.2 -0.70001,20 -7.4,22.8 -6.8,2.7 -27.8,2.7 -21,0 -26,-2.5 -5,-2.5 -7.2,-4.8 -2.3,-2.2 -2.8,-3.2 z m 75.2,-18.2 0.8,-16.3 10.5,1.5 q 10.5,1.5 28.5,4 18,2.5 24,2.8 l 6,0.2 v 20 q 0,20 -4,21.2 -4,1.3 -19.5,1.8 -15.5,0.5 -25.5,-1.5 -10,-2 -13.5,-4.5 -3.5,-2.5 -5.7,-7.8 -2.3,-5.2 -1.6,-21.4 z m 114.3,-12.3 q 12.5,-3 24,-2.3 11.5,0.8 13.3,22.8 1.7,22 0.70001,23.5 -1,1.5 -4.7,3.3 -3.8,1.7 -30.3,2.2 -26.5,0.5 -33.5,-2 -7,-2.5 -8.8,-5.2 -1.7,-2.8 -1.4,-20.3 0.20001,-17.5 14.2,-18.3 14,-0.7 26.5,-3.7 z m 103,24.5 14.5,8.5 0.2,0.3 0.3,0.2 0.3,0.2 0.2,0.3 1,0.3 1,0.2 -0.2,1 -0.3,1 -0.5,1 -0.5,1 -0.5,1 -0.5,1 -0.3,0.2 -0.2,0.3 -0.2,0.3 -0.3,0.2 -0.3,0.2 -0.2,0.3 -1,0.5 q -1,0.5 -7.5,2.5 -6.5,2 -28.5,2 -22,0 -27,-1.5 -5,-1.5 -7.8,-6.2 -2.7,-4.8 -4,-22.3 -1.2,-17.5 4.3,-16.3 5.5,1.3 24.5,8.3 19,7 33.5,15.5 z M 296,235.5 h 9 l 0.2,-0.3 0.3,-0.2 0.3,0.2 0.2,0.3 3.5,0.5 3.5,0.5 -1,0.5 -1,0.5 -2,0.5 -2,0.5 -1,0.5 -1,0.5 -1.5,0.5 q -1.5,0.5 -16,6.5 -14.5,6 -30,16.7 Q 242,274 242,275 q 0,1 -1,1.2 l -1,0.3 -0.2,0.3 -0.3,0.2 -0.3,0.2 -0.2,0.3 h -2 l -0.2,-0.3 -0.3,-0.2 -7,-12 q -7,-12 -7.5,-15 -0.5,-3 0.5,-8.5 1,-5.5 7.7,-12.3 6.8,-6.7 15.3,-10.4 8.5,-3.8 12.3,2.7 3.7,6.5 9.4,9.7 5.8,3.3 12.8,3.8 7,0.5 16,0.5 z M 505.2,399 h -0.20001 l -0.2,1.5 q -0.29999,1.5 -4.3,13 -4.00001,11.5 -19,57.5 -14.99999,46 -22,60 -7.00001,14 -20.5,29 -13.49999,15 -25.2,24.8 -11.8,9.7 -27.8,18.2 -16,8.5 -35.5,16 -19.5,7.5 -40.5,12 -21,4.5 -46.5,4.5 -25.5,0 -37,-2.5 -11.5,-2.5 -30,-10.5 -18.5,-8 -31,-16 -12.5,-8 -19.7,-16.3 -7.3,-8.2 -10.8,-16.7 -3.5,-8.5 -4,-18 -0.5,-9.5 1.5,-18.5 2,-9 17,-43.5 15,-34.5 22.5,-63.5 7.5,-29 14,-52 6.5,-23 14.5,-38.5 8,-15.5 19.3,-29.7 11.2,-14.3 24.4,-26.6 13.3,-12.2 26.6,-20.2 l 13.2,-8 h 0.5 l 0.3,-0.2 0.2,-0.3 1,-0.5 1,-0.5 1,-0.5 1,-0.5 1,-0.5 1,-0.5 19,-5.5 q 19,-5.5 28.5,-6.5 9.5,-1 17.5,0.5 8,1.5 24,1 16,-0.5 22.5,-2.5 6.5,-2 12,1 5.5,3 8.5,3.5 3,0.5 26.5,0.5 23.5,0 30.5,-2 7,-2 9,-4.7 2,-2.8 8.5,0.39999 6.5,3.3 32.5,3.3 26,0 32.5,-3 6.5,-3 8.5,-6.3 2,-3.2 5.8,-1.2 3.7,2 18.7,14.5 15,12.5 22.5,21 7.5,8.5 9.5,12.5 2,4 1.5,9 -0.5,5 -14.2,12.2 -13.8,7.3 -33.8,17.3 -20,10 -31.2,18.7 -11.3,8.8 -19.3,17.8 -8,9 -14,21 -6,12 -8.5,18.5 -2.5,6.5 -2.8,6.5 z"
       stroke="#000000"
       id="path9125"
       style="display:inline" />
    <path
       d="m 296,235.5 h 9 l 0.2,-0.3 0.3,-0.2 0.3,0.2 0.2,0.3 3.5,0.5 3.5,0.5 -1,0.5 -1,0.5 -2,0.5 -2,0.5 -1,0.5 -1,0.5 -1.5,0.5 q -1.5,0.5 -16,6.5 -14.5,6 -30,16.7 Q 242,274 242,275 q 0,1 -1,1.2 l -1,0.3 -0.2,0.3 -0.3,0.2 -0.3,0.2 -0.2,0.3 h -2 l -0.2,-0.3 -0.3,-0.2 -7,-12 q -7,-12 -7.5,-15 -0.5,-3 0.5,-8.5 1,-5.5 7.7,-12.3 6.8,-6.7 15.3,-10.4 8.5,-3.8 12.3,2.7 3.7,6.5 9.4,9.7 5.8,3.3 12.8,3.8 7,0.5 16,0.5 z"
       fill="#600200"
       stroke="#600200"
       id="path9127"
       style="display:inline;fill:#000000;fill-opacity:1;stroke:none" />
    <path
       d="m 361.5,255 2.5,0.5 1.5,0.5 1.5,0.5 1,0.3 1,0.2 -0.2,1 -0.3,1 -0.5,1 -0.5,1 -0.3,0.2 -0.2,0.3 -0.2,0.3 -0.3,0.2 -11.5,15 q -11.5,15 -22.5,35 -11,20 -20,44 -9,24 -13,40 -4,16 -4.5,19.5 l -0.5,3.5 -0.3,1 -0.2,1 h 2 l 0.2,1 0.3,1 0.3,-1 0.2,-1 h 2 l 0.2,-1 0.3,-1 17.7,-37.8 q 17.8,-37.7 31,-60 13.3,-22.2 24.6,-36.4 11.2,-14.3 12.7,-16.6 1.5,-2.2 2.5,-2.2 1,0 3.5,-2.8 2.5,-2.7 13,-2.7 10.5,0 18,2 7.5,2 8.5,3 1,1 -0.5,1.3 -1.5,0.20001 -1.5,1.2 0,1 3.5,2.8 3.5,1.7 33.7,28 30.3,26.2 30.6,27.2 0.20001,1 1.2,1 1,0 -0.20001,6 -1.3,6 -8.3,21 -7,15 -8,20.5 -1,5.5 -0.29999,7.7 0.79999,2.3 1.8,3.3 1.00001,1 6.5,6.5 5.49999,5.5 7.3,5.8 1.7,0.20001 2.4,1 0.79999,0.70001 1.8,1 l 1,0.2 0.2,-1 q 0.29999,-1 0.59998,-2.5 l 0.2,-1.5 h 2 v 4 l -0.2,1.5 q -0.29999,1.5 -4.3,13 -4.00001,11.5 -19,57.5 -14.99999,46 -22,60 -7.00001,14 -20.5,29 -13.49999,15 -25.2,24.8 -11.8,9.7 -27.8,18.2 -16,8.5 -35.5,16 -19.5,7.5 -40.5,12 -21,4.5 -46.5,4.5 -25.5,0 -37,-2.5 -11.5,-2.5 -30,-10.5 -18.5,-8 -31,-16 -12.5,-8 -19.7,-16.3 -7.3,-8.2 -10.8,-16.7 -3.5,-8.5 -4,-18 -0.5,-9.5 1.5,-18.5 2,-9 17,-43.5 15,-34.5 22.5,-63.5 7.5,-29 14,-52 6.5,-23 14.5,-38.5 8,-15.5 19.3,-29.7 11.2,-14.3 24.4,-26.6 13.3,-12.2 26.6,-20.2 l 13.2,-8 v 0.5 l 0.2,0.3 0.3,0.2 0.3,0.2 0.2,0.3 2,0.5 2,0.5 0.2,0.3 0.3,0.2 0.3,-0.2 0.2,-0.3 1,-0.5 1,-0.5 15,-2.5 q 15,-2.5 29,-2 14,0.5 18.5,1.5 4.5,1 7,1.5 z"
       fill="#de1929"
       stroke="#de1929"
       id="path9129"
       style="display:none;fill:#000000;fill-opacity:1;stroke:none" />
    <path
       d="m 505.2,399 h -0.20001 v -1 q 0,-1 -1,-0.79999 -1,0.29999 -1.5,1.6 l -0.5,1.2 -1,-0.2 q -1,-0.29999 -1.8,-1 -0.70001,-0.79999 -2.4,-1 -1.8,-0.29999 -7.3,-5.8 -5.5,-5.50001 -6.5,-6.5 -1,-0.99999 -1.8,-3.3 -0.70001,-2.2 0.29999,-7.7 1,-5.5 8,-20.5 7,-15 8.3,-21 1.2,-6 0.20001,-6 -1,0 -1.2,-1 -0.29999,-1 -30.6,-27.2 -30.2,-26.3 -33.7,-28 -3.5,-1.8 -3.5,-2.8 0,-1 1.5,-1.2 1.5,-0.29999 0.5,-1.3 -1,-1.00001 -8.5,-3 -7.5,-1.99999 -18,-2 -10.5,-10e-6 -13,2.7 -2.5,2.8 -3.5,2.8 -1,0 -2.5,2.2 -1.5,2.3 -12.7,16.6 -11.3,14.2 -24.6,36.4 -13.2,22.3 -31,60 l -17.7,37.8 -0.3,1 -0.2,1 h -2 v 2 h -3 l 0.2,-2 0.3,-2 0.5,-3.5 q 0.5,-3.5 4.5,-19.5 4,-16 13,-40 9,-24 20,-44 11,-20 22.5,-35 l 11.5,-15 0.3,-0.2 0.2,-0.3 0.2,-0.3 0.3,-0.2 0.5,-1 0.5,-1 0.3,-1 0.2,-1 -1,-0.2 -1,-0.3 -1.5,-0.5 -1.5,-0.5 -2.5,-0.5 q -2.5,-0.5 -7,-1.5 -4.5,-1 -18.5,-1.5 -14,-0.5 -29,2 l -15,2.5 -1,0.5 -1,0.5 -0.2,0.3 -0.3,0.2 -0.3,-0.2 -0.2,-0.3 -2,-0.5 -2,-0.5 -0.2,-0.3 -0.3,-0.2 -0.3,-0.2 -0.2,-0.3 v -0.5 h 0.5 l 0.3,-0.2 0.2,-0.3 1,-0.5 1,-0.5 1,-0.5 1,-0.5 1,-0.5 1,-0.5 19,-5.5 q 19,-5.5 28.5,-6.5 9.5,-1 17.5,0.5 8,1.5 24,1 16,-0.5 22.5,-2.5 6.5,-2 12,1 5.5,3 8.5,3.5 3,0.5 26.5,0.5 23.5,0 30.5,-2 7,-2 9,-4.7 2,-2.8 8.5,0.39999 6.5,3.3 32.5,3.3 26,0 32.5,-3 6.5,-3 8.5,-6.3 2,-3.2 5.8,-1.2 3.7,2 18.7,14.5 15,12.5 22.5,21 7.5,8.5 9.5,12.5 2,4 1.5,9 -0.5,5 -14.2,12.2 -13.8,7.3 -33.8,17.3 -20,10 -31.2,18.7 -11.3,8.8 -19.3,17.8 -8,9 -14,21 -6,12 -8.5,18.5 -2.5,6.5 -2.8,6.5 z"
       fill="#950a14"
       stroke="#950a14"
       id="path9137"
       style="display:inline;fill:#000000;fill-opacity:1;stroke:none" />
    <path
       d="m 473.5,534 -1.5,0.5 -1,0.5 -1,0.5 -1,0.5 -1,0.5 -1,0.3 -1,0.2 0.2,-1.5 0.3,-1.5 0.5,-1 0.5,-1 0.5,-1 0.5,-1 0.5,-1 q 0.5,-1 1,-2 0.5,-1 23,-68 22.5,-67 29,-80 6.5,-13 14.5,-22 8,-9 19.7,-17.8 11.8,-8.7 38.8,-21.7 27,-13 33.2,-17.3 6.3,-4.2 7.8,-9.7 1.5,-5.5 -1,-12 Q 632.5,272 625,263 617.5,254 605.5,243.5 593.5,233 575.2,220.8 557,208.5 538,200 519,191.5 501.5,186.5 484,181.5 472,181 q -12,-0.5 -23.5,2.5 -11.5,3 -35,3.5 -23.5,0.5 -41.5,-2.5 -18,-3 -31,-4 -13,-1 -16.5,-0.5 -3.5,0.5 -21,7 -17.5,6.5 -43.5,18 -26,11.5 -33,17.5 -7,6 -9.8,13.3 -2.7,7.2 -1.2,14.7 1.5,7.5 7.5,17.5 6,10 7.3,13.5 1.2,3.5 0.2,3.5 -1,0 -1.5,1.2 -0.5,1.3 -12.7,16.6 l -12.3,15.2 -0.3,0.2 -0.2,0.3 -0.2,0.3 -0.3,0.2 -0.5,1 -0.5,1 -0.3,0.2 -0.2,0.3 -0.2,0.3 -0.3,0.2 -0.3,0.2 -0.2,0.3 h -1 l -0.2,-0.3 -0.3,-0.2 -3,-15.5 Q 193.5,291 186,274 q -7.5,-17 -11,-25 -3.5,-8 -2.5,-15 1,-7 4.5,-12.5 3.5,-5.5 11.2,-12.3 7.8,-6.7 15.6,-13 7.7,-6.2 40.4,-38 32.8,-31.7 49.3,-44.7 16.5,-13 30,-20 13.5,-7 20,-8.5 6.5,-1.5 16.5,-1 10,0.5 17,4 7,3.5 20,11.5 13,8 21.5,8 8.5,0 26.5,-9 18,-9 28,-11 10,-2 22,-1.5 12,0.5 25,5 13,4.5 23.2,11.8 10.3,7.2 17.3,14.2 7,7 24.7,31.2 17.8,24.3 40.6,49 22.7,24.8 33.7,36.8 11,12 16,20.5 5,8.5 6,11.5 1,3 0.5,9 -0.5,6 -4.8,13.8 -4.2,7.7 -16.4,21 -12.3,13.2 -32.3,33.2 -20,20 -30.5,38 -10.5,18 -26.8,51.2 -16.2,33.3 -26,46.6 -9.7,13.2 -21,23 -11.2,9.7 -27.2,19.2 -16,9.5 -19,11 -3,1.5 -4.5,2 z m -157,-414 -1.5,0.5 -2,0.5 -2,0.5 h -3 l -0.2,-0.3 -0.3,-0.2 v -3 l 0.5,-1 0.5,-1 0.5,-1 0.5,-1 0.3,-0.2 0.2,-0.3 0.2,-0.3 0.3,-0.2 7.3,-7.2 q 7.2,-7.3 16.7,-11.8 9.5,-4.5 21,-4.5 11.5,0 14,1.3 2.5,1.2 3.7,4.7 1.3,3.5 -1.4,6.3 -2.8,2.7 -17.8,5.2 -15,2.5 -25.5,7.5 -10.5,5 -12,5.5 z m 224.5,-1 0.5,2 v 4 l -0.5,1 -0.5,1 -0.3,0.2 -0.2,0.3 -1,0.5 -1,0.5 h -2 l -1.5,-0.5 -1.5,-0.5 -1,-0.5 q -1,-0.5 -4.5,-3 -3.5,-2.5 -13,-6.5 -9.5,-4 -27.5,-6.5 l -18,-2.5 -1,-0.5 -1,-0.5 -0.2,-0.3 -0.3,-0.2 -0.3,-0.2 -0.2,-0.3 -0.2,-0.3 -0.3,-0.2 -0.5,-1 -0.5,-1 v -3 l 0.5,-1 0.5,-1 0.3,-0.2 0.2,-0.3 0.2,-0.3 0.3,-0.2 0.3,-0.2 0.2,-0.3 0.2,-0.3 0.3,-0.2 0.3,-0.2 0.2,-0.3 8,-2.5 q 8,-2.5 18,-2 10,0.5 19.5,4.5 9.5,4 16.7,9.7 7.3,5.8 8.8,8.3 1.5,2.5 2,4.5 z"
       fill="#c91724"
       stroke="#c91724"
       id="path9139"
       style="fill:none;stroke:none" />
    <path
       d="m 449.5,190.5 q 12.5,-3 24,-2.3 11.5,0.8 13.3,22.8 1.7,22 0.70001,23.5 -1,1.5 -4.7,3.3 -3.8,1.7 -30.3,2.2 -26.5,0.5 -33.5,-2 -7,-2.5 -8.8,-5.2 -1.7,-2.8 -1.4,-20.3 0.20001,-17.5 14.2,-18.3 14,-0.7 26.5,-3.7 z"
       fill="#eaebeb"
       stroke="#eaebeb"
       id="path9141"
       style="stroke:none" />
    <path
       d="m 335.2,202.8 0.8,-16.3 10.5,1.5 q 10.5,1.5 28.5,4 18,2.5 24,2.8 l 6,0.2 v 20 q 0,20 -4,21.2 -4,1.3 -19.5,1.8 -15.5,0.5 -25.5,-1.5 -10,-2 -13.5,-4.5 -3.5,-2.5 -5.7,-7.8 -2.3,-5.2 -1.6,-21.4 z"
       fill="#ebecec"
       stroke="#ebecec"
       id="path9143"
       style="stroke:none" />
    <path
       d="m 260,221 -0.5,-1 -0.5,-1 -0.5,-1 -0.5,-1 -0.5,-1 -0.3,-1.5 -0.2,-1.5 1,-0.2 1,-0.3 32,-12.5 q 32,-12.5 36.5,-13.2 4.5,-0.8 3.7,19.2 -0.70001,20 -7.4,22.8 -6.8,2.7 -27.8,2.7 -21,0 -26,-2.5 -5,-2.5 -7.2,-4.8 -2.3,-2.2 -2.8,-3.2 z"
       fill="#e5e5e6"
       stroke="#e5e5e6"
       id="path9145"
       style="stroke:none" />
    <path
       d="m 552.5,215 14.5,8.5 0.2,0.3 0.3,0.2 0.3,0.2 0.2,0.3 1,0.3 1,0.2 -0.2,1 -0.3,1 -0.5,1 -0.5,1 -0.5,1 -0.5,1 -0.3,0.2 -0.2,0.3 -0.2,0.3 -0.3,0.2 -0.3,0.2 -0.2,0.3 -1,0.5 q -1,0.5 -7.5,2.5 -6.5,2 -28.5,2 -22,0 -27,-1.5 -5,-1.5 -7.8,-6.2 -2.7,-4.8 -4,-22.3 -1.2,-17.5 4.3,-16.3 5.5,1.3 24.5,8.3 19,7 33.5,15.5 z"
       fill="#e6e7e8"
       stroke="#e6e7e8"
       id="path9147"
       style="stroke:none" />
  </g>
</svg>
